{
  "version": "1.1.6",
  "modules": [
    {
      "id": 156,
      "plugin": "Core",
      "version": "1.1.6",
      "model": "CV-CC",
      "params": [],
      "rightModuleId": 162,
      "data": {
        "ccs": [
          0,
          1,
          2,
          3,
          4,
          5,
          6,
          7,
          8,
          9,
          10,
          11,
          12,
          13,
          14,
          15
        ],
        "midi": {
          "driver": 4,
          "deviceName": "loopMIDI Port 1",
          "channel": 0
        }
      },
      "pos": [
        0,
        0
      ]
    },
    {
      "id": 162,
      "plugin": "Fundamental",
      "version": "1.4.0",
      "model": "LFO2",
      "params": [
        {
          "id": 0,
          "value": 1.0
        },
        {
          "id": 1,
          "value": 1.0
        },
        {
          "id": 2,
          "value": -1.75400114
        },
        {
          "id": 3,
          "value": 0.0
        },
        {
          "id": 4,
          "value": 0.5
        }
      ],
      "leftModuleId": 156,
      "rightModuleId": 163,
      "pos": [
        10,
        0
      ]
    },
    {
      "id": 163,
      "plugin": "Fundamental",
      "version": "1.4.0",
      "model": "LFO2",
      "params": [
        {
          "id": 0,
          "value": 1.0
        },
        {
          "id": 1,
          "value": 1.0
        },
        {
          "id": 2,
          "value": -1.43000019
        },
        {
          "id": 3,
          "value": 0.0
        },
        {
          "id": 4,
          "value": 0.5
        }
      ],
      "leftModuleId": 162,
      "rightModuleId": 164,
      "pos": [
        16,
        0
      ]
    },
    {
      "id": 164,
      "plugin": "Fundamental",
      "version": "1.4.0",
      "model": "LFO2",
      "params": [
        {
          "id": 0,
          "value": 1.0
        },
        {
          "id": 1,
          "value": 1.0
        },
        {
          "id": 2,
          "value": -1.15999997
        },
        {
          "id": 3,
          "value": 0.0
        },
        {
          "id": 4,
          "value": 0.5
        }
      ],
      "leftModuleId": 163,
      "pos": [
        22,
        0
      ]
    }
  ],
  "cables": [
    {
      "id": 1012,
      "outputModuleId": 162,
      "outputId": 0,
      "inputModuleId": 156,
      "inputId": 0,
      "color": "#c9b70e"
    },
    {
      "id": 1013,
      "outputModuleId": 163,
      "outputId": 0,
      "inputModuleId": 156,
      "inputId": 1,
      "color": "#0c8e15"
    },
    {
      "id": 1014,
      "outputModuleId": 164,
      "outputId": 0,
      "inputModuleId": 156,
      "inputId": 2,
      "color": "#c91847"
    }
  ]
}